<svg id="svg" version="1.1" xmlns="http://www.w3.org/2000/svg" xmlns:xlink="http://www.w3.org/1999/xlink" width="400" height="406.1162079510703" viewBox="0, 0, 400,406.1162079510703"><g id="svgg"><path id="path0" d="M352.400 0.651 C 343.907 2.278,340.956 4.336,326.137 18.963 L 315.000 29.955 342.237 57.155 L 369.474 84.355 381.673 72.078 C 390.167 63.529,394.303 59.071,395.291 57.400 C 400.859 47.989,400.813 36.261,395.170 26.678 C 391.623 20.653,375.344 5.229,370.168 2.989 C 365.421 0.934,356.827 -0.197,352.400 0.651 M40.800 16.400 C 40.470 16.613,39.390 16.794,38.400 16.803 C 20.272 16.951,2.397 34.805,0.384 54.774 C -0.412 62.670,0.079 368.787,0.893 372.016 C 4.976 388.211,16.572 400.313,32.000 404.481 L 35.400 405.400 179.600 405.400 L 323.800 405.400 327.397 404.484 C 341.925 400.787,353.716 389.142,358.071 374.191 L 359.000 371.000 359.104 265.300 L 359.209 159.600 342.607 159.600 L 326.005 159.600 325.862 261.900 C 325.783 318.165,325.683 364.542,325.639 364.959 C 325.419 367.058,323.107 370.007,320.718 371.235 C 318.567 372.342,41.258 372.445,38.930 371.340 C 37.268 370.551,35.431 368.780,34.488 367.058 C 33.841 365.874,33.800 356.685,33.800 211.200 L 33.800 56.600 34.661 55.000 C 35.659 53.146,36.833 51.996,38.800 50.947 C 40.155 50.224,43.622 50.197,147.500 50.097 L 254.800 49.994 254.800 32.997 L 254.800 16.000 148.100 16.006 C 79.904 16.010,41.183 16.152,40.800 16.400 M294.000 50.918 C 281.791 62.983,200.816 143.195,174.000 169.788 C 160.250 183.424,148.951 194.688,148.890 194.819 C 148.752 195.120,203.197 249.000,203.640 249.000 C 204.011 249.000,211.267 241.808,295.100 158.341 C 328.375 125.211,355.600 97.942,355.600 97.743 C 355.600 97.395,301.909 43.597,301.567 43.603 C 301.475 43.605,298.070 46.896,294.000 50.918 M138.693 208.280 C 138.594 208.456,138.184 209.860,137.782 211.400 C 137.379 212.940,136.948 214.290,136.825 214.400 C 136.701 214.510,136.594 214.780,136.587 215.000 C 136.541 216.354,135.868 218.800,135.541 218.800 C 135.328 218.800,135.252 218.960,135.373 219.156 C 135.494 219.352,134.871 222.007,133.989 225.056 C 133.106 228.105,132.292 231.050,132.180 231.600 C 132.068 232.150,131.865 232.870,131.728 233.200 C 131.592 233.530,131.415 234.160,131.335 234.600 C 131.256 235.040,130.922 236.210,130.594 237.200 C 130.265 238.190,128.891 243.050,127.540 248.000 C 126.188 252.950,124.928 257.060,124.739 257.134 C 124.550 257.208,124.496 257.432,124.620 257.633 C 124.744 257.833,123.741 262.063,122.391 267.033 C 121.041 272.003,120.038 276.171,120.162 276.295 C 120.285 276.419,126.015 275.113,132.893 273.394 C 139.772 271.674,145.673 270.244,146.007 270.215 C 146.341 270.186,146.848 270.018,147.134 269.841 C 147.419 269.664,147.760 269.626,147.890 269.756 C 148.020 269.887,148.349 269.808,148.621 269.582 C 148.893 269.357,149.270 269.207,149.458 269.249 C 149.646 269.292,150.070 269.221,150.400 269.091 C 151.810 268.536,162.928 265.995,163.118 266.185 C 163.233 266.299,163.523 266.236,163.763 266.044 C 164.443 265.502,186.355 260.325,186.803 260.602 C 187.021 260.737,187.200 260.636,187.200 260.377 C 187.200 260.104,187.535 259.994,188.000 260.116 C 188.440 260.231,188.800 260.162,188.800 259.963 C 188.800 259.763,189.160 259.600,189.600 259.600 C 190.979 259.600,190.653 259.231,179.500 248.185 C 173.505 242.247,161.911 230.768,153.736 222.675 C 145.561 214.582,138.791 208.104,138.693 208.280 " stroke="none" fill="#fbfbfb" fill-rule="evenodd"></path><path id="path1" d="M377.164 6.935 C 377.749 7.663,380.000 9.377,380.000 9.094 C 380.000 9.006,379.235 8.326,378.300 7.583 C 377.365 6.840,376.854 6.548,377.164 6.935 M324.737 19.200 C 319.140 24.920,314.632 29.600,314.719 29.600 C 314.978 29.600,335.388 9.561,335.533 9.164 C 335.997 7.897,333.788 9.951,324.737 19.200 M36.720 16.480 C 37.093 16.853,37.307 16.853,37.680 16.480 C 38.053 16.107,37.947 16.000,37.200 16.000 C 36.453 16.000,36.347 16.107,36.720 16.480 M26.500 18.665 C 25.681 18.995,25.933 19.543,26.800 19.316 C 27.240 19.201,27.600 18.948,27.600 18.753 C 27.600 18.372,27.288 18.347,26.500 18.665 M23.440 20.058 C 22.582 20.511,21.682 21.041,21.440 21.238 C 21.198 21.434,19.650 22.480,18.000 23.562 C 16.350 24.644,14.550 26.034,14.000 26.652 L 13.000 27.774 14.400 26.671 C 16.882 24.715,22.151 21.337,23.900 20.581 C 24.835 20.177,25.600 19.701,25.600 19.523 C 25.600 19.041,25.163 19.149,23.440 20.058 M396.081 27.791 C 396.559 28.776,397.019 29.514,397.103 29.430 C 397.284 29.249,395.668 26.000,395.397 26.000 C 395.294 26.000,395.602 26.806,396.081 27.791 M9.577 31.088 C 7.194 33.801,3.675 39.661,3.024 42.000 C 2.871 42.550,3.489 41.506,4.397 39.680 C 5.305 37.853,7.209 34.838,8.627 32.980 C 11.352 29.408,11.753 28.609,9.577 31.088 M314.400 30.186 C 314.400 30.621,368.909 84.799,369.332 84.784 C 369.590 84.776,373.850 80.794,378.800 75.936 C 386.747 68.136,386.958 67.900,380.600 73.918 C 376.640 77.666,372.598 81.558,371.617 82.567 C 370.636 83.575,369.687 84.400,369.507 84.400 C 369.328 84.400,356.936 72.160,341.971 57.200 C 316.604 31.843,314.400 29.683,314.400 30.186 M299.815 44.338 L 298.230 46.200 299.878 44.655 L 301.526 43.110 328.763 70.313 C 343.743 85.275,356.000 97.691,356.000 97.904 C 356.000 98.116,348.420 105.795,339.156 114.968 C 329.892 124.140,322.409 131.743,322.529 131.862 C 322.841 132.174,356.400 98.432,356.400 97.806 C 356.400 97.402,301.694 42.275,301.455 42.438 C 301.425 42.458,300.687 43.313,299.815 44.338 M37.829 51.809 C 36.663 52.691,37.234 52.794,38.600 51.947 C 39.260 51.539,39.530 51.209,39.200 51.215 C 38.870 51.221,38.253 51.488,37.829 51.809 M270.102 73.407 C 259.929 83.633,251.726 92.000,251.874 92.000 C 252.162 92.000,288.908 55.608,289.133 55.100 C 289.679 53.872,286.397 57.029,270.102 73.407 M223.600 119.516 C 213.370 129.792,205.900 137.409,207.000 136.443 C 208.994 134.691,242.800 101.146,242.800 100.919 C 242.800 100.335,239.842 103.200,223.600 119.516 M177.200 165.527 C 166.970 175.777,161.300 181.618,164.600 178.507 C 172.331 171.221,196.220 147.283,195.982 147.062 C 195.882 146.968,187.430 155.278,177.200 165.527 M271.487 182.286 C 254.279 199.384,235.700 217.834,230.201 223.286 C 224.701 228.739,220.407 233.200,220.657 233.200 C 220.907 233.200,239.593 214.750,262.180 192.200 C 284.767 169.650,303.141 151.200,303.011 151.200 C 302.881 151.200,288.695 165.189,271.487 182.286 M148.870 193.726 C 147.760 194.907,147.777 195.251,149.000 196.400 C 150.227 197.553,150.333 197.006,149.130 195.726 L 148.261 194.800 149.200 193.800 C 149.717 193.250,150.049 192.800,149.939 192.800 C 149.829 192.800,149.348 193.217,148.870 193.726 M138.267 207.067 C 137.825 207.509,137.967 208.068,138.446 207.772 C 138.709 207.609,145.475 214.039,154.946 223.452 C 163.776 232.227,172.530 240.846,174.400 242.604 C 176.270 244.362,169.070 237.028,158.400 226.306 C 147.730 215.585,138.895 206.810,138.767 206.806 C 138.638 206.803,138.413 206.920,138.267 207.067 M164.000 210.924 C 174.000 221.205,202.881 249.817,203.365 249.922 C 203.674 249.990,198.139 244.346,191.064 237.381 C 183.989 230.415,175.500 221.971,172.200 218.615 C 168.900 215.260,164.940 211.370,163.400 209.971 C 160.682 207.503,160.700 207.531,164.000 210.924 M126.032 250.739 C 125.508 251.719,125.476 252.400,125.953 252.400 C 126.295 252.400,126.864 250.337,126.597 250.066 C 126.524 249.992,126.270 250.295,126.032 250.739 M189.930 258.126 C 190.409 258.635,190.800 259.265,190.800 259.526 C 190.800 259.787,190.980 260.000,191.200 260.000 C 191.909 260.000,191.626 258.964,190.674 258.070 C 189.437 256.907,188.829 256.953,189.930 258.126 M34.812 366.575 C 34.792 367.197,36.489 369.464,37.373 369.998 C 37.907 370.320,37.758 370.019,36.953 369.148 C 36.267 368.407,35.507 367.440,35.265 367.000 C 35.023 366.560,34.819 366.369,34.812 366.575 M359.467 367.067 C 359.052 367.482,359.153 368.800,359.600 368.800 C 359.820 368.800,360.000 368.350,360.000 367.800 C 360.000 366.753,359.908 366.626,359.467 367.067 M322.462 369.085 C 320.749 370.868,320.911 371.078,322.737 369.440 C 323.524 368.734,324.683 367.116,324.314 367.238 C 324.251 367.258,323.418 368.089,322.462 369.085 M358.800 371.000 C 358.800 371.330,358.980 371.600,359.200 371.600 C 359.420 371.600,359.600 371.330,359.600 371.000 C 359.600 370.670,359.420 370.400,359.200 370.400 C 358.980 370.400,358.800 370.670,358.800 371.000 M358.400 373.000 C 358.400 373.330,358.580 373.600,358.800 373.600 C 359.020 373.600,359.200 373.330,359.200 373.000 C 359.200 372.670,359.020 372.400,358.800 372.400 C 358.580 372.400,358.400 372.670,358.400 373.000 M3.600 381.353 C 3.600 381.782,4.790 384.000,5.021 384.000 C 5.131 384.000,4.923 383.415,4.559 382.700 C 3.817 381.240,3.600 380.936,3.600 381.353 M352.486 386.904 C 351.575 388.277,350.510 389.850,350.120 390.400 C 349.455 391.335,349.455 391.364,350.109 390.848 C 350.968 390.169,354.557 384.824,354.316 384.583 C 354.220 384.487,353.397 385.531,352.486 386.904 M6.400 386.698 C 6.400 387.740,14.027 396.400,14.944 396.400 C 15.145 396.400,14.125 395.244,12.677 393.831 C 11.229 392.419,9.225 390.149,8.222 388.787 C 7.220 387.426,6.400 386.486,6.400 386.698 M346.991 393.609 C 345.912 394.704,345.211 395.600,345.432 395.600 C 345.952 395.600,349.413 392.080,349.151 391.818 C 349.041 391.708,348.069 392.514,346.991 393.609 M343.285 396.990 C 342.638 397.534,340.787 398.794,339.173 399.790 C 337.558 400.785,336.434 401.600,336.675 401.600 C 337.221 401.600,344.206 397.037,344.576 396.438 C 345.014 395.730,344.544 395.930,343.285 396.990 M15.600 396.985 C 15.600 397.255,20.259 400.376,21.092 400.664 C 21.481 400.798,20.481 399.984,18.868 398.854 C 15.988 396.837,15.600 396.615,15.600 396.985 " stroke="none" fill="#3d3d3d" fill-rule="evenodd"></path><path id="path2" d="M356.900 0.276 C 357.285 0.376,357.915 0.376,358.300 0.276 C 358.685 0.175,358.370 0.093,357.600 0.093 C 356.830 0.093,356.515 0.175,356.900 0.276 M336.800 8.140 C 336.250 8.643,335.353 9.583,334.808 10.228 C 334.262 10.872,334.757 10.507,335.908 9.415 C 337.800 7.620,338.203 7.174,337.900 7.213 C 337.845 7.220,337.350 7.637,336.800 8.140 M384.800 15.000 C 388.866 19.070,392.282 22.400,392.392 22.400 C 392.502 22.400,389.266 19.070,385.200 15.000 C 381.134 10.930,377.718 7.600,377.608 7.600 C 377.498 7.600,380.734 10.930,384.800 15.000 M39.000 16.400 C 38.684 16.911,40.010 16.911,40.800 16.400 C 41.269 16.097,41.166 16.011,40.324 16.006 C 39.732 16.003,39.136 16.180,39.000 16.400 M254.800 33.000 L 254.800 50.000 148.024 50.000 C 89.297 50.000,41.164 50.135,41.062 50.300 C 40.854 50.637,253.290 50.537,254.700 50.200 L 255.600 49.985 255.600 32.992 C 255.600 21.931,255.460 16.000,255.200 16.000 C 254.940 16.000,254.800 21.933,254.800 33.000 M7.224 34.918 C 6.923 35.403,6.415 36.205,6.093 36.700 C 5.771 37.195,5.595 37.600,5.701 37.600 C 5.983 37.600,8.086 34.353,7.915 34.181 C 7.835 34.102,7.524 34.433,7.224 34.918 M295.466 49.050 C 292.202 52.253,288.884 55.622,288.092 56.537 C 287.300 57.451,290.016 54.872,294.126 50.804 C 298.237 46.736,301.600 43.361,301.600 43.304 C 301.600 43.053,301.090 43.531,295.466 49.050 M36.175 52.900 L 35.000 54.200 36.300 53.025 C 37.512 51.930,37.784 51.600,37.475 51.600 C 37.406 51.600,36.821 52.185,36.175 52.900 M34.249 55.815 C 34.112 56.173,34.015 56.766,34.034 57.133 C 34.053 57.500,34.227 57.269,34.421 56.620 C 34.798 55.358,34.665 54.733,34.249 55.815 M33.797 211.800 C 33.799 339.006,33.892 365.939,34.330 366.600 L 34.860 367.400 34.530 366.600 C 34.349 366.160,34.109 296.500,33.997 211.800 L 33.794 57.800 33.797 211.800 M380.997 72.900 L 369.400 84.600 381.100 73.003 C 387.535 66.624,392.800 61.359,392.800 61.303 C 392.800 61.020,391.775 62.027,380.997 72.900 M253.494 90.615 C 247.606 96.437,242.927 101.200,243.097 101.200 C 243.267 101.200,248.173 96.430,254.000 90.600 C 259.827 84.770,264.506 80.007,264.397 80.015 C 264.289 80.023,259.382 84.793,253.494 90.615 M209.548 134.198 C 203.249 140.456,198.389 145.413,198.748 145.214 C 199.452 144.821,221.524 122.794,221.197 122.809 C 221.089 122.814,215.846 127.939,209.548 134.198 M318.396 135.065 C 312.296 141.220,311.667 141.937,315.506 138.365 C 319.688 134.473,326.735 127.200,326.323 127.200 C 326.251 127.200,322.684 130.739,318.396 135.065 M295.998 157.500 L 281.800 171.800 296.100 157.602 C 303.965 149.793,310.400 143.358,310.400 143.302 C 310.400 143.020,309.193 144.210,295.998 157.500 M325.467 159.467 C 325.320 159.613,325.213 205.828,325.228 262.167 C 325.244 319.669,325.407 364.249,325.600 363.800 C 325.789 363.360,325.956 317.235,325.972 261.300 L 326.000 159.600 342.600 159.600 L 359.200 159.600 359.206 262.900 C 359.210 329.739,359.349 365.988,359.600 365.600 C 360.350 364.439,360.119 159.731,359.367 159.443 C 358.501 159.110,325.800 159.133,325.467 159.467 M166.197 177.300 L 155.000 188.600 166.300 177.403 C 176.801 166.997,177.780 166.000,177.497 166.000 C 177.441 166.000,172.356 171.085,166.197 177.300 M155.200 201.800 C 157.943 204.550,160.278 206.800,160.388 206.800 C 160.498 206.800,158.343 204.550,155.600 201.800 C 152.857 199.050,150.522 196.800,150.412 196.800 C 150.302 196.800,152.457 199.050,155.200 201.800 M153.800 222.800 C 159.517 228.520,164.284 233.200,164.394 233.200 C 164.504 233.200,159.917 228.520,154.200 222.800 C 148.483 217.080,143.716 212.400,143.606 212.400 C 143.496 212.400,148.083 217.080,153.800 222.800 M232.778 220.300 L 231.400 221.800 232.900 220.422 C 234.296 219.138,234.584 218.800,234.278 218.800 C 234.212 218.800,233.537 219.475,232.778 220.300 M134.796 220.860 C 134.545 221.817,134.067 223.558,133.733 224.730 C 133.399 225.901,133.206 226.939,133.303 227.036 C 133.400 227.133,133.951 225.465,134.528 223.328 C 135.105 221.191,135.504 219.370,135.415 219.281 C 135.325 219.192,135.047 219.902,134.796 220.860 M180.400 226.600 C 184.245 230.450,187.481 233.600,187.591 233.600 C 187.701 233.600,184.645 230.450,180.800 226.600 C 176.955 222.750,173.719 219.600,173.609 219.600 C 173.499 219.600,176.555 222.750,180.400 226.600 M216.798 236.282 C 209.429 243.697,206.177 247.076,209.570 243.791 C 216.174 237.397,230.631 222.800,230.359 222.800 C 230.269 222.800,224.167 228.867,216.798 236.282 M132.629 228.629 C 132.481 229.215,132.438 229.772,132.532 229.866 C 132.627 229.960,132.824 229.558,132.971 228.971 C 133.119 228.385,133.162 227.828,133.068 227.734 C 132.973 227.640,132.776 228.042,132.629 228.629 M193.194 239.300 C 198.206 244.409,198.800 244.981,198.800 244.694 C 198.800 244.636,196.325 242.161,193.300 239.194 L 187.800 233.800 193.194 239.300 M157.294 267.306 C 154.595 267.974,152.464 268.597,152.557 268.691 C 152.755 268.888,163.200 266.408,163.200 266.164 C 163.200 265.887,162.379 266.046,157.294 267.306 M324.865 366.217 C 324.195 367.688,324.323 368.002,325.047 366.665 C 325.386 366.040,325.588 365.454,325.496 365.363 C 325.405 365.271,325.121 365.656,324.865 366.217 M38.400 371.031 C 38.400 371.301,40.478 372.056,40.676 371.857 C 40.767 371.767,40.292 371.501,39.620 371.267 C 38.949 371.033,38.400 370.927,38.400 371.031 M110.468 371.900 C 148.455 371.956,210.735 371.956,248.868 371.900 C 287.000 371.844,255.920 371.798,179.800 371.798 C 103.680 371.798,72.480 371.844,110.468 371.900 M5.324 384.200 C 5.662 384.860,6.238 385.760,6.604 386.200 C 6.970 386.640,6.865 386.280,6.370 385.400 C 5.280 383.458,4.464 382.522,5.324 384.200 M350.575 389.068 C 349.959 389.876,349.659 390.411,349.909 390.256 C 350.421 389.940,352.153 387.600,351.875 387.600 C 351.776 387.600,351.191 388.261,350.575 389.068 M12.200 393.200 C 13.283 394.300,14.260 395.200,14.370 395.200 C 14.480 395.200,13.683 394.300,12.600 393.200 C 11.517 392.100,10.540 391.200,10.430 391.200 C 10.320 391.200,11.117 392.100,12.200 393.200 M346.778 393.500 L 345.400 395.000 346.900 393.622 C 348.296 392.338,348.584 392.000,348.278 392.000 C 348.212 392.000,347.537 392.675,346.778 393.500 M110.932 405.900 C 148.955 405.956,211.055 405.956,248.932 405.900 C 286.810 405.844,255.700 405.798,179.800 405.798 C 103.900 405.798,72.910 405.844,110.932 405.900 " stroke="none" fill="#a1a1a1" fill-rule="evenodd"></path><path id="path3" d="M385.063 14.711 C 388.618 18.280,391.656 21.200,391.814 21.200 C 392.232 21.200,381.220 10.089,379.800 9.077 C 379.140 8.607,381.508 11.143,385.063 14.711 M326.192 18.500 L 322.200 22.600 326.300 18.608 C 330.108 14.899,330.582 14.400,330.292 14.400 C 330.233 14.400,328.388 16.245,326.192 18.500 M320.794 36.100 C 325.806 41.209,326.400 41.781,326.400 41.494 C 326.400 41.436,323.925 38.961,320.900 35.994 L 315.400 30.600 320.794 36.100 M307.800 49.600 C 310.654 52.460,313.078 54.800,313.188 54.800 C 313.298 54.800,311.054 52.460,308.200 49.600 C 305.346 46.740,302.922 44.400,302.812 44.400 C 302.702 44.400,304.946 46.740,307.800 49.600 M295.000 49.013 C 293.240 50.650,291.985 51.992,292.210 51.995 C 292.436 51.998,293.961 50.650,295.600 49.000 C 299.398 45.176,299.119 45.182,295.000 49.013 M341.800 57.200 C 344.654 60.060,347.078 62.400,347.188 62.400 C 347.298 62.400,345.054 60.060,342.200 57.200 C 339.346 54.340,336.922 52.000,336.812 52.000 C 336.702 52.000,338.946 54.340,341.800 57.200 M34.198 211.200 C 34.198 295.570,34.244 330.085,34.300 287.900 C 34.356 245.715,34.356 176.685,34.300 134.500 C 34.244 92.315,34.198 126.830,34.198 211.200 M282.192 62.100 L 278.600 65.800 282.300 62.208 C 285.736 58.872,286.182 58.400,285.892 58.400 C 285.832 58.400,284.167 60.065,282.192 62.100 M385.795 68.483 C 381.011 73.342,380.809 73.592,384.400 70.210 C 388.595 66.261,390.114 64.744,391.149 63.474 C 392.562 61.739,390.935 63.261,385.795 68.483 M329.200 71.000 C 332.384 74.190,335.080 76.800,335.190 76.800 C 335.300 76.800,332.784 74.190,329.600 71.000 C 326.416 67.810,323.720 65.200,323.610 65.200 C 323.500 65.200,326.016 67.810,329.200 71.000 M363.200 78.600 C 365.943 81.350,368.278 83.600,368.388 83.600 C 368.498 83.600,366.343 81.350,363.600 78.600 C 360.857 75.850,358.522 73.600,358.412 73.600 C 358.302 73.600,360.457 75.850,363.200 78.600 M350.200 92.000 C 353.274 95.080,355.879 97.600,355.989 97.600 C 356.099 97.600,353.674 95.080,350.600 92.000 C 347.526 88.920,344.921 86.400,344.811 86.400 C 344.701 86.400,347.126 88.920,350.200 92.000 M247.400 96.078 L 243.400 100.093 247.700 96.170 C 250.065 94.013,252.000 92.192,252.000 92.124 C 252.000 91.621,250.881 92.583,247.400 96.078 M237.988 105.900 L 235.400 108.600 238.100 106.012 C 239.585 104.588,240.800 103.373,240.800 103.312 C 240.800 103.017,240.393 103.392,237.988 105.900 M344.993 108.900 L 340.600 113.400 345.100 109.007 C 349.280 104.926,349.782 104.400,349.493 104.400 C 349.434 104.400,347.409 106.425,344.993 108.900 M333.794 120.100 L 328.600 125.400 333.900 120.206 C 336.815 117.349,339.200 114.964,339.200 114.906 C 339.200 114.619,338.619 115.177,333.794 120.100 M202.768 140.434 L 197.400 145.668 202.900 140.552 C 205.925 137.739,208.400 135.384,208.400 135.319 C 208.400 134.987,207.728 135.598,202.768 140.434 M306.427 147.500 C 300.551 153.385,295.789 158.200,295.844 158.200 C 295.900 158.200,300.805 153.385,306.745 147.500 C 312.685 141.615,317.447 136.800,317.328 136.800 C 317.208 136.800,312.303 141.615,306.427 147.500 M193.413 149.992 L 190.626 153.000 193.595 150.115 C 195.227 148.528,196.481 147.174,196.382 147.107 C 196.282 147.039,194.946 148.337,193.413 149.992 M325.461 159.100 C 325.292 159.373,338.116 159.367,353.400 159.087 C 356.700 159.027,351.806 158.938,342.524 158.889 C 333.242 158.840,325.564 158.935,325.461 159.100 M161.789 181.300 L 159.000 184.200 161.900 181.411 C 163.495 179.877,164.800 178.572,164.800 178.511 C 164.800 178.217,164.380 178.606,161.789 181.300 M154.992 187.657 C 153.016 189.668,151.760 191.063,152.200 190.757 C 153.076 190.147,159.043 184.000,158.759 184.000 C 158.662 184.000,156.967 185.646,154.992 187.657 M251.797 201.700 L 240.600 213.000 251.900 201.803 C 262.401 191.397,263.380 190.400,263.097 190.400 C 263.041 190.400,257.956 195.485,251.797 201.700 M157.000 204.000 C 158.971 205.980,160.673 207.600,160.783 207.600 C 160.893 207.600,159.371 205.980,157.400 204.000 C 155.429 202.020,153.727 200.400,153.617 200.400 C 153.507 200.400,155.029 202.020,157.000 204.000 M163.583 210.100 C 165.241 211.866,165.600 212.184,165.600 211.883 C 165.600 211.819,164.745 210.964,163.700 209.983 L 161.800 208.200 163.583 210.100 M175.600 222.200 C 178.123 224.730,180.277 226.800,180.387 226.800 C 180.497 226.800,178.523 224.730,176.000 222.200 C 173.477 219.670,171.323 217.600,171.213 217.600 C 171.103 217.600,173.077 219.670,175.600 222.200 M213.600 240.200 C 212.628 241.190,211.923 242.000,212.033 242.000 C 212.143 242.000,213.028 241.190,214.000 240.200 C 214.972 239.210,215.677 238.400,215.567 238.400 C 215.457 238.400,214.572 239.210,213.600 240.200 M173.000 241.600 C 174.083 242.700,175.060 243.600,175.170 243.600 C 175.280 243.600,174.483 242.700,173.400 241.600 C 172.317 240.500,171.340 239.600,171.230 239.600 C 171.120 239.600,171.917 240.500,173.000 241.600 M207.179 246.312 L 203.800 249.800 207.188 246.600 C 209.052 244.840,210.657 243.355,210.755 243.300 C 210.853 243.245,210.849 243.116,210.746 243.012 C 210.642 242.909,209.037 244.394,207.179 246.312 M182.200 250.400 C 183.950 252.160,185.471 253.600,185.581 253.600 C 185.691 253.600,184.350 252.160,182.600 250.400 C 180.850 248.640,179.329 247.200,179.219 247.200 C 179.109 247.200,180.450 248.640,182.200 250.400 " stroke="none" fill="#7c7c7c" fill-rule="evenodd"></path><path id="path4" d="M384.383 14.100 C 386.041 15.866,386.400 16.184,386.400 15.883 C 386.400 15.819,385.545 14.964,384.500 13.983 L 382.600 12.200 384.383 14.100 M320.185 24.500 L 318.200 26.600 320.300 24.615 C 322.251 22.771,322.583 22.400,322.285 22.400 C 322.222 22.400,321.277 23.345,320.185 24.500 M148.200 50.400 L 41.400 50.602 148.076 50.701 C 218.869 50.767,254.836 50.665,255.000 50.400 C 255.136 50.180,255.192 50.045,255.124 50.099 C 255.056 50.153,206.940 50.289,148.200 50.400 M290.378 53.465 L 289.000 54.930 290.700 53.598 C 291.635 52.866,292.400 52.206,292.400 52.133 C 292.400 51.655,291.562 52.207,290.378 53.465 M276.800 67.400 C 275.828 68.390,275.123 69.200,275.233 69.200 C 275.343 69.200,276.228 68.390,277.200 67.400 C 278.172 66.410,278.877 65.600,278.767 65.600 C 278.657 65.600,277.772 66.410,276.800 67.400 M270.792 73.500 L 267.000 77.400 270.900 73.608 C 273.045 71.522,274.800 69.767,274.800 69.708 C 274.800 69.418,274.314 69.878,270.792 73.500 M265.375 78.900 L 264.200 80.200 265.500 79.025 C 266.215 78.379,266.800 77.794,266.800 77.725 C 266.800 77.416,266.470 77.688,265.375 78.900 M247.178 96.700 L 245.800 98.200 247.300 96.822 C 248.696 95.538,248.984 95.200,248.678 95.200 C 248.612 95.200,247.937 95.875,247.178 96.700 M352.591 101.300 L 349.400 104.600 352.700 101.409 C 354.515 99.655,356.000 98.170,356.000 98.109 C 356.000 97.818,355.554 98.235,352.591 101.300 M233.600 110.200 C 232.628 111.190,231.923 112.000,232.033 112.000 C 232.143 112.000,233.028 111.190,234.000 110.200 C 234.972 109.210,235.677 108.400,235.567 108.400 C 235.457 108.400,234.572 109.210,233.600 110.200 M230.175 113.700 L 229.000 115.000 230.300 113.825 C 231.015 113.179,231.600 112.594,231.600 112.525 C 231.600 112.216,231.270 112.488,230.175 113.700 M224.191 119.700 L 221.000 123.000 224.300 119.809 C 227.365 116.846,227.782 116.400,227.491 116.400 C 227.430 116.400,225.945 117.885,224.191 119.700 M319.787 134.500 L 317.400 137.000 319.900 134.613 C 321.275 133.299,322.400 132.174,322.400 132.113 C 322.400 131.817,322.005 132.178,319.787 134.500 M202.581 140.900 L 201.000 142.600 202.700 141.019 C 204.281 139.548,204.584 139.200,204.281 139.200 C 204.216 139.200,203.451 139.965,202.581 140.900 M179.978 163.500 L 178.600 165.000 180.100 163.622 C 180.925 162.863,181.600 162.188,181.600 162.122 C 181.600 161.816,181.262 162.104,179.978 163.500 M279.586 173.900 L 277.400 176.200 279.700 174.014 C 280.965 172.811,282.000 171.776,282.000 171.714 C 282.000 171.417,281.618 171.763,279.586 173.900 M271.775 181.700 L 270.600 183.000 271.900 181.825 C 272.615 181.179,273.200 180.594,273.200 180.525 C 273.200 180.216,272.870 180.488,271.775 181.700 M156.189 186.900 L 153.400 189.800 156.300 187.011 C 157.895 185.477,159.200 184.172,159.200 184.111 C 159.200 183.817,158.780 184.206,156.189 186.900 M264.378 189.100 L 263.000 190.600 264.500 189.222 C 265.896 187.938,266.184 187.600,265.878 187.600 C 265.812 187.600,265.137 188.275,264.378 189.100 M152.000 190.913 C 151.670 191.181,151.137 191.760,150.815 192.200 C 150.494 192.640,150.809 192.471,151.515 191.825 C 152.667 190.772,153.000 190.375,152.700 190.413 C 152.645 190.420,152.330 190.645,152.000 190.913 M150.400 197.325 C 150.400 197.394,150.985 197.979,151.700 198.625 L 153.000 199.800 151.825 198.500 C 150.730 197.288,150.400 197.016,150.400 197.325 M139.600 208.525 C 139.600 208.594,140.185 209.179,140.900 209.825 L 142.200 211.000 141.025 209.700 C 139.930 208.488,139.600 208.216,139.600 208.525 M218.600 234.800 C 217.741 235.680,217.209 236.397,217.419 236.393 C 217.762 236.386,220.641 233.200,220.304 233.200 C 220.226 233.200,219.459 233.920,218.600 234.800 M212.400 241.000 C 211.428 241.990,210.723 242.800,210.833 242.800 C 210.943 242.800,211.828 241.990,212.800 241.000 C 213.772 240.010,214.477 239.200,214.367 239.200 C 214.257 239.200,213.372 240.010,212.400 241.000 M177.000 245.600 C 178.083 246.700,179.060 247.600,179.170 247.600 C 179.280 247.600,178.483 246.700,177.400 245.600 C 176.317 244.500,175.340 243.600,175.230 243.600 C 175.120 243.600,175.917 244.500,177.000 245.600 M200.000 246.125 C 200.000 246.194,200.585 246.779,201.300 247.425 L 202.600 248.600 201.425 247.300 C 200.330 246.088,200.000 245.816,200.000 246.125 M180.000 248.525 C 180.000 248.594,180.585 249.179,181.300 249.825 L 182.600 251.000 181.425 249.700 C 180.330 248.488,180.000 248.216,180.000 248.525 M182.800 251.287 C 182.800 251.360,184.174 252.766,185.853 254.410 C 187.532 256.055,188.499 256.829,188.001 256.131 C 187.218 255.034,182.800 250.919,182.800 251.287 " stroke="none" fill="#848484" fill-rule="evenodd"></path></g></svg>