<?xml version="1.0" standalone="no"?>
<!DOCTYPE svg PUBLIC "-//W3C//DTD SVG 20010904//EN"
 "http://www.w3.org/TR/2001/REC-SVG-20010904/DTD/svg10.dtd">
<svg version="1.0" xmlns="http://www.w3.org/2000/svg"
 width="500.000000pt" height="500.000000pt" viewBox="0 0 500.000000 500.000000"
 preserveAspectRatio="xMidYMid meet">
<metadata>
Created by potrace 1.14, written by Peter Selinger 2001-2017
</metadata>
<g transform="translate(0.000000,500.000000) scale(0.100000,-0.100000)"
fill="#000000" stroke="none">
<path d="M2400 4377 c-86 -64 -133 -96 -429 -293 -90 -60 -173 -115 -185 -123
-302 -202 -731 -478 -810 -521 l-76 -42 -1 -291 c-1 -161 0 -301 0 -313 3 -29
-12 -37 -114 -63 -164 -41 -256 -96 -444 -267 -55 -51 -51 -59 54 -109 40 -18
75 -41 78 -50 4 -8 7 -130 7 -271 1 -140 4 -262 7 -270 8 -23 23 -17 72 29 25
23 86 65 136 91 70 38 100 49 139 50 l50 1 8 -40 c4 -22 7 -70 7 -107 1 -71
-4 -82 -59 -120 l-25 -17 45 -41 c25 -22 86 -72 135 -110 50 -39 118 -93 153
-120 l63 -50 81 0 81 0 81 -58 c44 -32 216 -145 381 -251 165 -107 377 -245
471 -307 98 -65 182 -114 195 -114 13 0 85 41 164 93 598 400 743 497 838 562
l108 75 82 0 c45 1 92 6 103 13 18 10 226 181 338 279 30 26 30 26 12 47 -10
11 -27 23 -37 26 -17 6 -19 18 -19 111 0 82 3 106 14 110 26 10 159 -16 218
-43 34 -15 75 -45 103 -74 26 -27 50 -49 55 -49 25 0 30 51 30 282 0 175 4
250 13 268 13 25 106 78 140 79 10 1 21 9 24 18 13 34 -138 137 -333 225 -77
36 -168 83 -202 107 l-62 42 0 308 c0 235 -3 311 -12 319 -7 5 -44 26 -83 47
-61 32 -231 145 -1105 730 -102 68 -229 156 -282 194 -54 39 -103 71 -110 71
-7 0 -51 -29 -98 -63z m215 -305 c-3 -3 -11 0 -18 7 -9 10 -8 11 6 5 10 -3 15
-9 12 -12z m65 -39 c0 -7 -39 17 -46 28 -3 6 5 3 20 -6 14 -10 26 -19 26 -22z
m63 -46 c-3 -5 -8 -4 -12 2 -4 6 -16 18 -27 27 -14 11 -11 11 13 -2 18 -10 29
-22 26 -27z m112 -56 c-5 -4 -95 48 -95 54 0 3 22 -7 49 -22 27 -16 48 -30 46
-32z m-818 -313 c-3 -8 -6 -5 -6 6 -1 11 2 17 5 13 3 -3 4 -12 1 -19z m1278
-18 c21 -14 25 -20 13 -20 -10 0 -18 5 -18 10 0 6 -6 10 -14 10 -8 0 -18 5
-21 10 -10 16 7 12 40 -10z m112 -96 c-3 -3 -12 -4 -19 -1 -8 3 -5 6 6 6 11 1
17 -2 13 -5z m133 -74 c8 -5 11 -10 5 -10 -5 0 -17 5 -25 10 -8 5 -10 10 -5
10 6 0 17 -5 25 -10z m-910 -275 c267 -34 660 -113 745 -150 17 -8 65 -27 107
-44 42 -16 94 -41 115 -54 54 -34 226 -114 261 -122 61 -13 208 -76 267 -115
34 -22 117 -65 186 -95 121 -55 279 -149 279 -166 0 -5 -11 -9 -24 -9 -13 0
-46 -15 -72 -32 l-49 -33 -5 -205 -5 -205 -37 -3 c-21 -2 -38 -7 -38 -13 0 -5
5 -9 12 -9 6 0 9 -2 6 -5 -3 -3 -21 3 -39 14 -48 28 -191 72 -225 69 -67 -4
-155 2 -149 12 3 6 2 10 -4 10 -5 0 -11 -5 -13 -12 -3 -7 -10 -8 -17 -4 -11 7
-11 10 0 17 9 6 1 6 -20 2 -23 -4 -32 -3 -28 4 8 13 -24 23 -71 23 -23 0 -31
4 -26 12 4 7 3 8 -4 4 -11 -7 -110 23 -134 40 -25 19 -70 35 -62 22 5 -8 2 -9
-10 -5 -10 4 -24 7 -31 7 -8 0 -21 7 -29 16 -9 8 -16 12 -16 8 0 -4 -9 1 -20
11 -11 10 -20 14 -20 10 0 -4 -9 3 -21 16 -12 14 -33 24 -52 25 -51 4 -96 12
-110 21 -6 4 -21 8 -32 9 -17 0 -117 21 -260 54 -22 5 -94 14 -160 21 -66 6
-124 13 -128 16 -4 3 -92 4 -195 4 -142 -1 -227 -7 -352 -25 -91 -13 -172 -24
-180 -24 -8 0 -28 -3 -45 -7 -16 -4 -43 -9 -60 -12 -27 -5 -218 -62 -374 -112
-35 -12 -66 -19 -68 -17 -3 2 -29 -7 -59 -20 -30 -13 -61 -24 -70 -24 -8 0
-25 -7 -38 -15 -12 -8 -60 -26 -106 -40 -90 -27 -129 -32 -66 -9 56 20 58 28
6 20 -25 -4 -54 -9 -65 -10 -11 -1 -28 -6 -38 -11 -10 -4 -21 -5 -24 -1 -4 3
1 6 11 6 9 0 15 4 12 9 -7 10 -46 3 -46 -9 0 -12 -48 -18 -58 -8 -5 5 -17 5
-27 2 -18 -7 -18 -8 1 -15 29 -11 123 -10 145 1 13 7 19 7 19 1 0 -16 -39 -22
-125 -19 -53 2 -80 7 -80 15 0 6 -3 15 -7 19 -5 4 -8 2 -8 -4 0 -7 -8 -12 -17
-12 -10 0 -58 -22 -107 -50 -49 -27 -93 -47 -98 -44 -5 3 -16 0 -24 -7 -13
-11 -15 -10 -12 7 1 10 10 24 18 31 20 16 0 16 -21 0 -19 -15 -18 -63 2 -59 8
2 6 -5 -6 -18 -20 -22 -20 -22 -25 223 -5 244 -5 246 -30 272 -13 14 -48 33
-77 41 -29 9 -51 20 -47 25 3 5 10 7 15 4 5 -3 6 0 4 7 -3 8 7 21 22 30 16 9
46 34 68 55 22 21 56 51 75 65 74 55 253 113 398 127 99 10 255 78 380 164
197 137 373 193 812 258 283 42 341 45 500 24z m-945 -1126 c31 -66 35 -83 24
-90 -20 -12 -310 -11 -385 2 -34 6 -70 16 -79 23 -15 11 -7 16 57 35 86 25
225 78 283 108 25 13 44 18 51 12 6 -5 28 -45 49 -90z m1790 37 c44 -18 120
-45 168 -61 57 -18 85 -31 79 -37 -24 -24 -133 -38 -303 -38 -153 0 -178 2
-183 16 -7 20 1 34 17 30 7 -1 9 -1 5 1 -14 8 -9 23 28 89 l36 64 36 -16 c20
-9 73 -30 117 -48z m-851 46 c3 -4 -37 -6 -87 -4 -131 5 -139 9 -20 11 56 0
104 -3 107 -7z m35 -74 c-1 -85 -6 -80 -11 10 -3 34 -1 62 4 62 4 0 8 -33 7
-72z m-570 -40 c1 -55 -10 -76 -23 -43 -3 8 0 15 6 15 7 0 9 20 5 63 -3 36 -1
54 3 42 5 -11 9 -46 9 -77z m238 -105 c-2 -37 -3 -9 -3 62 0 72 1 102 3 68 2
-34 2 -93 0 -130z m450 115 c-3 -8 -6 -5 -6 6 -1 11 2 17 5 13 3 -3 4 -12 1
-19z m-244 5 c-29 -2 -77 -2 -105 0 -29 2 -6 3 52 3 58 0 81 -1 53 -3z m-18
-34 c4 -6 14 -8 22 -5 8 3 11 2 8 -3 -3 -6 3 -14 12 -20 17 -10 17 -10 -2 -11
-11 -1 -14 -4 -7 -7 6 -2 12 -11 12 -18 0 -7 -6 -16 -12 -18 -8 -3 -6 -6 5 -6
18 -1 25 -21 7 -21 -5 0 -10 -5 -10 -11 0 -5 5 -7 10 -4 6 3 10 1 10 -4 0 -6
-8 -11 -17 -12 -15 0 -15 -2 -3 -7 16 -8 24 -72 8 -72 -5 0 -6 5 -2 11 5 9 -1
10 -22 4 -68 -18 -117 -13 -107 11 4 12 8 12 21 2 10 -8 13 -9 9 -1 -4 6 -1
14 5 16 7 3 3 6 -9 6 -21 1 -28 11 -24 35 1 4 -4 14 -10 22 -10 12 -8 13 7 8
18 -5 18 -5 1 9 -16 13 -16 15 -1 21 22 8 26 8 19 -4 -3 -5 1 -10 9 -10 9 0
15 3 15 8 -3 20 2 32 16 32 8 0 15 5 15 11 0 6 7 9 15 6 8 -4 17 -2 20 3 5 9
-7 14 -27 12 -3 -1 -9 5 -12 13 -6 17 9 20 19 4z m262 -21 c-3 -7 -5 -2 -5 12
0 14 2 19 5 13 2 -7 2 -19 0 -25z m-537 -115 c0 -116 -6 -163 -19 -163 -4 0
-7 63 -8 140 -1 114 2 140 13 140 11 0 14 -24 14 -117z m232 95 c-9 -9 -15 -9
-24 0 -9 9 -7 12 12 12 19 0 21 -3 12 -12z m1968 -43 c0 -8 -6 -15 -12 -15 -9
0 -10 -3 -2 -8 13 -8 15 -44 2 -36 -5 3 -6 9 -3 14 3 5 1 11 -4 14 -11 7 -2
46 10 46 5 0 9 -7 9 -15z m-2958 -108 c8 -120 50 -195 139 -246 l50 -28 -159
-5 c-87 -2 -164 -8 -171 -12 -19 -12 4 -34 50 -48 22 -6 39 -15 39 -19 0 -4
-15 -3 -32 2 -18 5 -34 9 -35 9 -1 0 0 -7 3 -15 5 -12 -3 -15 -35 -15 -23 0
-41 -4 -41 -10 0 -6 -15 -7 -36 -4 -22 3 -40 1 -43 -5 -5 -7 -14 -6 -29 5 -12
8 -19 20 -16 26 4 7 2 8 -4 4 -18 -11 -286 204 -271 218 2 2 35 20 72 40 l68
37 60 -55 c65 -61 91 -72 146 -63 69 12 119 89 129 198 l6 64 53 3 52 3 5 -84z
m2109 23 c8 -71 44 -154 81 -185 21 -18 41 -25 72 -25 47 0 73 16 135 82 l36
39 70 -32 c39 -18 72 -34 74 -35 9 -8 -24 -34 -36 -30 -8 3 -12 2 -9 -2 6 -11
-38 -53 -167 -160 l-97 -82 -91 0 c-58 0 -88 4 -84 10 4 6 10 8 15 5 4 -3 19
-1 32 4 22 9 22 10 -7 11 l-30 1 25 12 c14 7 26 18 28 25 1 9 -2 11 -10 6 -7
-4 -4 2 6 14 11 12 16 25 13 29 -4 3 -86 8 -182 11 l-176 5 41 21 c23 11 61
42 85 67 24 26 47 44 51 40 4 -3 4 -1 1 5 -4 7 0 24 8 40 7 15 17 63 21 106
l7 79 41 -3 41 -3 6 -55z m-1264 -72 c-2 -13 -4 -5 -4 17 -1 22 1 32 4 23 2
-10 2 -28 0 -40z m1286 -295 c3 -5 -14 -9 -36 -10 -34 -1 -37 0 -17 7 33 11
48 12 53 3z m-2233 -59 c0 -2 -11 -4 -25 -4 -14 0 -25 4 -25 9 0 4 11 6 25 3
14 -2 25 -6 25 -8z m-119 -12 c-13 -2 -27 0 -32 5 -6 6 3 7 23 4 28 -4 29 -6
9 -9z"/>
<path d="M2330 2775 c0 -33 4 -45 15 -45 8 0 15 5 15 10 0 19 48 60 70 60 19
0 20 -6 20 -131 0 -122 -1 -131 -20 -136 -19 -5 -28 -22 -12 -24 63 -6 156 -2
159 7 2 6 -5 14 -17 17 -19 5 -20 13 -20 136 0 75 4 131 9 131 27 0 63 -23 81
-52 20 -34 25 -30 32 29 6 41 -1 43 -184 43 l-148 0 0 -45z"/>
<path d="M2125 2800 c-3 -6 5 -14 19 -20 28 -10 33 -28 39 -163 5 -87 5 -88
-20 -98 -41 -15 -19 -22 64 -20 84 2 112 14 71 30 -23 9 -25 15 -31 102 -11
145 -10 148 18 159 14 5 25 12 25 15 0 10 -179 5 -185 -5z"/>
<path d="M2802 2795 c-76 -23 -112 -72 -112 -150 0 -86 47 -137 143 -157 50
-11 58 -10 102 13 49 24 75 52 62 65 -4 4 -20 -4 -35 -19 -45 -43 -110 -48
-146 -12 -27 28 -38 91 -26 148 14 67 42 97 91 97 43 0 61 -14 90 -72 25 -48
36 -41 41 27 3 49 3 50 -27 51 -16 1 -48 7 -70 13 -50 13 -60 13 -113 -4z"/>
<path d="M1860 2779 c-106 -17 -120 -20 -120 -29 0 -5 12 -10 27 -12 28 -3 28
-5 45 -122 9 -66 15 -123 12 -128 -3 -4 -12 -8 -20 -8 -8 0 -14 -6 -14 -13 0
-20 202 8 260 36 40 19 45 26 48 59 4 43 -21 72 -71 83 -30 6 -30 7 -11 15 26
10 54 48 54 71 0 10 -12 27 -26 38 -29 23 -83 26 -184 10z m98 -31 c30 -30 1
-98 -43 -98 -18 0 -24 7 -29 38 -11 67 -9 72 27 72 18 0 38 -5 45 -12z m23
-136 c25 -21 30 -71 9 -96 -14 -18 -65 -21 -75 -6 -4 6 -9 35 -12 65 l-6 55
30 0 c17 0 41 -8 54 -18z"/>
<path d="M3056 2771 c-3 -4 6 -13 19 -19 22 -10 25 -16 20 -49 -4 -21 -12 -74
-18 -118 -10 -67 -16 -82 -34 -90 -13 -5 -23 -13 -23 -16 0 -10 160 -33 168
-24 4 4 3 9 -3 12 -32 12 -36 21 -29 71 4 30 12 52 19 52 6 0 29 -35 50 -78
l38 -78 109 -23 c110 -24 139 -23 100 5 -26 18 -27 22 -3 53 17 22 20 23 74
11 57 -13 67 -24 67 -76 0 -14 -6 -20 -20 -20 -10 1 -20 -3 -22 -8 -2 -5 40
-21 92 -37 52 -15 124 -37 159 -48 68 -22 91 -26 91 -13 0 4 -9 13 -20 19 -20
13 -20 14 15 111 8 23 65 -15 72 -48 3 -17 9 -30 13 -30 10 0 50 111 44 122
-3 4 -17 -1 -33 -13 -22 -16 -32 -18 -54 -10 -15 6 -27 14 -27 19 0 16 32 102
38 102 4 0 25 -7 48 -16 38 -15 53 -31 68 -76 8 -25 21 -22 34 7 17 36 15 52
-5 58 -10 3 -71 24 -136 46 -133 46 -165 51 -129 22 12 -11 22 -23 22 -28 0
-20 -63 -209 -74 -220 -8 -8 -19 -8 -46 0 l-35 12 -27 153 c-14 85 -28 155
-30 157 -2 1 -13 5 -25 9 -18 6 -34 -10 -113 -109 -51 -64 -100 -119 -109
-124 -29 -15 -52 4 -92 76 l-40 71 36 12 c40 13 58 39 53 77 -5 42 -45 63
-164 83 -127 22 -131 23 -138 11z m192 -53 c6 -6 12 -25 12 -44 0 -37 -29 -64
-68 -64 -23 0 -23 2 -16 58 3 31 9 61 11 65 5 9 42 0 61 -15z m340 -175 c5
-29 7 -53 3 -53 -16 0 -81 22 -81 27 0 7 62 85 65 81 2 -2 8 -27 13 -55z"/>
<path d="M1460 2709 c-96 -22 -115 -34 -71 -42 33 -7 31 -2 62 -141 l22 -99
-23 -17 c-12 -9 -19 -19 -14 -22 5 -3 64 8 131 24 136 33 173 56 173 107 0 38
-40 71 -88 71 l-35 0 34 23 c39 26 51 74 24 101 -22 22 -106 20 -215 -5z m122
-26 c22 -20 23 -42 2 -71 -14 -20 -63 -32 -64 -14 -1 4 -5 26 -9 49 -5 23 -6
45 -3 48 11 11 56 4 74 -12z m41 -130 c8 -10 18 -30 22 -45 9 -35 -25 -71 -63
-66 -22 3 -28 10 -39 53 -7 28 -11 56 -8 63 7 18 69 15 88 -5z"/>
<path d="M1115 2622 c-52 -24 -102 -82 -111 -127 -8 -45 18 -117 53 -145 115
-90 302 -11 305 128 2 56 -21 103 -64 135 -39 29 -130 34 -183 9z m94 -22 c28
-15 64 -108 65 -169 0 -44 -4 -56 -23 -72 -54 -44 -117 -2 -145 95 -21 72 -20
98 5 130 22 28 64 35 98 16z"/>
<path d="M831 2521 c-80 -29 -103 -51 -53 -51 25 0 31 -6 45 -42 10 -23 14
-45 9 -49 -6 -6 -118 -49 -127 -49 -2 0 -11 21 -21 46 -17 45 -17 47 0 60 10
7 16 17 15 23 -5 11 -169 -57 -169 -70 0 -5 13 -9 28 -9 26 0 31 -8 76 -111
l48 -111 -22 -15 c-13 -9 -18 -19 -13 -24 11 -11 175 60 167 73 -3 4 -16 8
-29 8 -24 0 -43 25 -59 77 -6 19 0 25 40 43 86 37 87 37 108 -21 17 -48 17
-54 2 -64 -22 -17 -21 -39 2 -30 9 4 45 17 79 29 63 21 84 46 39 46 -13 0 -27
8 -31 18 -4 9 -23 60 -42 112 l-34 95 20 16 c46 37 21 37 -78 0z"/>
<path d="M4127 2463 c-18 -46 -8 -52 37 -24 27 17 39 19 60 11 14 -5 26 -13
26 -17 0 -5 -22 -57 -49 -118 -44 -102 -49 -110 -74 -108 -18 1 -27 -3 -27
-13 0 -8 6 -14 13 -14 6 0 41 -14 75 -30 35 -17 68 -30 73 -30 15 0 10 27 -6
34 -8 3 -15 11 -15 18 0 11 86 217 95 226 1 1 14 -3 29 -9 20 -9 28 -22 32
-51 9 -53 20 -55 44 -8 l21 41 -78 35 c-92 42 -220 94 -232 94 -5 0 -16 -17
-24 -37z"/>
<path d="M960 2050 c0 -5 5 -10 10 -10 6 0 10 5 10 10 0 6 -4 10 -10 10 -5 0
-10 -4 -10 -10z"/>
<path d="M600 1949 c0 -5 5 -7 10 -4 6 3 10 8 10 11 0 2 -4 4 -10 4 -5 0 -10
-5 -10 -11z"/>
<path d="M4320 1946 c0 -3 9 -10 20 -16 15 -8 25 -8 38 0 16 11 16 11 -1 6
-10 -3 -27 -1 -38 4 -10 6 -19 8 -19 6z"/>
<path d="M598 1918 c9 -9 15 -9 24 0 9 9 7 12 -12 12 -19 0 -21 -3 -12 -12z"/>
<path d="M1300 1970 c-8 -5 -10 -10 -5 -10 6 0 17 5 25 10 8 5 11 10 5 10 -5
0 -17 -5 -25 -10z"/>
<path d="M3640 1986 c0 -2 9 -6 20 -9 11 -3 18 -1 14 4 -5 9 -34 13 -34 5z"/>
<path d="M2515 1790 c-3 -5 1 -10 10 -10 9 0 13 5 10 10 -3 6 -8 10 -10 10 -2
0 -7 -4 -10 -10z"/>
<path d="M3608 1523 c6 -2 18 -2 25 0 6 3 1 5 -13 5 -14 0 -19 -2 -12 -5z"/>
<path d="M3688 1433 c7 -3 16 -2 19 1 4 3 -2 6 -13 5 -11 0 -14 -3 -6 -6z"/>
<path d="M3750 1400 c-23 -7 -23 -8 -3 -9 12 -1 25 4 28 9 3 6 5 10 3 9 -2 -1
-14 -5 -28 -9z"/>
</g>
</svg>
