<?xml version="1.0" standalone="no"?>
<!DOCTYPE svg PUBLIC "-//W3C//DTD SVG 20010904//EN"
 "http://www.w3.org/TR/2001/REC-SVG-20010904/DTD/svg10.dtd">
<svg version="1.0" xmlns="http://www.w3.org/2000/svg"
 width="1028.000000pt" height="1028.000000pt" viewBox="0 0 1028.000000 1028.000000"
 preserveAspectRatio="xMidYMid meet">
<metadata>
Created by potrace 1.14, written by Peter Selinger 2001-2017
</metadata>
<g transform="translate(0.000000,1028.000000) scale(0.100000,-0.100000)"
fill="#000000" stroke="none">
<path d="M5165 7415 c-47 -17 -71 -43 -85 -93 -6 -23 -10 -240 -10 -574 l0
-538 -59 0 c-179 0 -271 -79 -271 -232 l0 -48 -44 0 c-24 0 -51 -2 -59 -6 -11
-4 -15 9 -19 63 -3 38 -13 86 -23 107 -24 50 -83 92 -149 106 -77 16 -808 9
-859 -9 -52 -17 -112 -79 -124 -127 l-9 -39 -8 38 c-9 47 -70 111 -123 128
-53 18 -753 25 -838 9 -61 -12 -114 -43 -140 -84 -8 -12 -24 -56 -35 -97 -17
-66 -20 -108 -20 -389 0 -246 -3 -325 -15 -363 -12 -40 -15 -184 -17 -865 l-3
-817 31 -105 c18 -58 42 -157 54 -220 41 -214 82 -276 197 -299 87 -17 733
-15 801 3 67 18 114 54 139 106 l19 41 18 -41 c22 -51 70 -88 138 -106 66 -17
718 -20 797 -3 100 21 157 87 168 195 l6 54 48 0 49 0 0 -37 c0 -106 63 -189
159 -211 83 -19 1577 -17 1650 3 30 8 59 19 64 24 19 19 24 12 30 -39 7 -61
28 -93 75 -117 35 -17 76 -18 672 -18 l635 0 36 22 c39 25 51 44 73 118 13 46
31 105 135 443 22 70 47 154 57 187 9 33 23 67 31 76 27 32 33 187 26 620 -6
308 -11 430 -20 440 -8 11 -14 97 -17 289 -5 256 -9 385 -36 1140 -6 157 -14
413 -20 570 -15 475 -24 612 -40 638 -8 13 -31 33 -50 45 l-35 22 -1470 2
c-1252 2 -1476 0 -1510 -12z m2935 -284 c0 -96 4 -162 10 -166 6 -4 10 -112
10 -290 0 -178 4 -286 10 -290 6 -4 10 -108 10 -280 0 -172 4 -276 10 -280 6
-4 10 -111 10 -289 0 -169 4 -286 10 -292 5 -5 12 -131 15 -294 16 -888 15
-851 30 -857 12 -4 15 -29 15 -129 l0 -124 -660 0 -660 0 0 204 c0 126 -4 207
-10 211 -6 4 -10 188 -10 520 0 332 -4 516 -10 520 -6 4 -10 186 -10 514 0
298 -4 511 -9 516 -5 6 -11 26 -13 45 l-3 35 -817 3 -818 2 0 440 0 440 1445
0 1445 0 0 -159z m-4850 -1360 c0 -149 -4 -242 -10 -246 -6 -4 -10 -70 -10
-166 l0 -159 215 0 215 0 0 405 0 405 375 0 375 0 0 -259 c0 -163 -4 -262 -10
-266 -7 -4 -10 -300 -10 -856 l0 -849 -375 0 -375 0 -2 408 -3 407 -200 0
-200 0 -3 -75 c-2 -41 -7 -79 -12 -84 -6 -6 -10 -142 -10 -333 l0 -323 -380 0
-380 0 0 351 c0 298 2 353 15 365 13 13 15 67 15 359 0 218 4 346 10 350 6 4
10 135 10 360 0 225 4 356 10 360 6 3 10 24 10 46 l0 39 365 0 365 0 0 -239z
m3290 224 c0 -8 5 -15 10 -15 6 0 10 -98 10 -274 l0 -273 -37 -7 c-21 -3 -277
-6 -570 -6 l-532 0 -3 -367 c-2 -203 -1 -438 2 -523 l5 -155 578 -3 577 -2 0
-65 c0 -49 4 -67 15 -71 13 -5 15 -40 15 -230 l0 -224 -835 0 -834 0 -3 138
-3 137 -147 3 -148 3 0 472 c0 300 4 477 10 483 6 6 11 143 12 354 l3 345 138
3 137 3 0 128 c0 71 3 136 6 145 6 14 85 16 800 16 699 0 794 -2 794 -15z"/>
</g>
</svg>
