<?xml version="1.0" standalone="no"?>
<!DOCTYPE svg PUBLIC "-//W3C//DTD SVG 20010904//EN"
 "http://www.w3.org/TR/2001/REC-SVG-20010904/DTD/svg10.dtd">
<svg version="1.0" xmlns="http://www.w3.org/2000/svg"
 width="1028.000000pt" height="1028.000000pt" viewBox="0 0 1028.000000 1028.000000"
 preserveAspectRatio="xMidYMid meet">
<metadata>
Created by potrace 1.14, written by Peter Selinger 2001-2017
</metadata>
<g transform="translate(0.000000,1028.000000) scale(0.100000,-0.100000)"
fill="#000000" stroke="none">
<path d="M3006 8229 c-66 -16 -142 -82 -161 -139 -4 -14 -12 -131 -17 -260
-10 -280 -18 -473 -59 -1440 -14 -348 -15 -604 0 -735 23 -217 62 -613 79
-810 14 -155 39 -240 83 -284 52 -52 102 -61 330 -61 l189 0 0 -62 c0 -35 -8
-83 -17 -108 -16 -41 -17 -112 -16 -848 2 -612 5 -812 15 -840 12 -36 14 -90
35 -1037 8 -346 8 -351 33 -399 41 -81 61 -90 205 -94 l123 -4 4 -89 c5 -102
20 -131 84 -164 38 -20 59 -20 1224 -20 1165 0 1186 0 1224 20 64 33 79 62 84
164 l4 89 122 4 c190 5 206 22 219 232 38 639 40 1745 2 1805 -5 8 5 23 29 42
22 19 39 45 46 68 15 57 15 836 -1 881 -13 38 -25 127 -35 258 l-7 82 302 0
c366 0 401 6 461 82 19 25 45 132 61 251 5 37 14 100 19 140 6 39 15 104 20
142 5 39 14 99 20 135 6 36 15 95 21 133 18 131 29 203 41 282 22 141 9 789
-18 898 -8 35 -87 115 -117 119 -19 3 -22 9 -21 48 1 25 6 81 13 125 7 44 16
115 21 158 6 42 14 112 20 155 5 42 15 113 22 157 24 154 4 680 -29 780 -27
79 -75 127 -143 143 -73 17 -1796 17 -1870 0 -92 -21 -150 -106 -150 -217 0
-28 -1 -28 -72 -33 -40 -3 -81 -9 -90 -13 -15 -6 -18 -1 -18 33 0 125 -54 208
-150 230 -72 17 -838 17 -910 0 -74 -17 -124 -69 -138 -145 -20 -103 -23 -136
-30 -303 l-7 -165 -6 205 c-4 170 -9 215 -26 265 -27 79 -75 127 -143 143 -62
14 -843 15 -904 1z m852 -557 c2 -272 0 -367 -9 -378 -10 -12 19 -14 217 -12
l229 3 3 305 c2 168 8 309 13 314 5 6 9 38 9 73 l0 63 400 0 400 0 0 -169 c0
-103 4 -172 10 -176 7 -4 10 -320 10 -916 l0 -909 -435 0 -435 0 0 289 c0 183
4 292 10 296 6 4 10 55 10 121 l0 114 -225 0 -225 0 0 -114 c0 -66 -4 -117
-10 -121 -6 -4 -10 -113 -10 -296 l0 -289 -64 0 c-36 0 -68 5 -71 10 -4 6
-138 10 -371 10 l-364 0 0 109 c0 63 4 112 10 116 6 4 10 95 10 240 0 145 4
236 10 240 6 4 10 95 10 240 0 145 4 236 10 240 6 4 10 95 10 240 0 145 4 236
10 240 6 4 10 91 10 227 0 193 2 224 17 240 15 17 39 18 412 16 l396 -3 3
-363z m3610 338 c2 -14 8 -29 13 -35 5 -5 9 -87 9 -181 0 -105 4 -175 10 -179
6 -3 10 -35 10 -69 0 -63 0 -64 -31 -70 -17 -3 -301 -6 -630 -6 l-599 0 0
-304 c0 -193 4 -307 10 -311 6 -4 10 -78 10 -191 l0 -184 508 0 c279 0 571 -3
650 -7 l142 -6 0 -133 c0 -78 4 -135 10 -139 6 -4 10 -70 10 -166 l0 -159
-925 0 -924 0 -3 138 -3 137 -168 3 -167 2 2 813 3 812 148 3 147 3 0 123 c0
67 3 126 7 129 3 4 401 6 882 5 l876 -3 3 -25z m-1154 -3833 l70 -2 0 -155 1
-155 183 -3 182 -2 0 -34 c0 -21 -6 -36 -15 -40 -13 -5 -15 -41 -15 -239 l0
-234 -52 -7 c-29 -3 -425 -6 -880 -6 l-828 0 0 -170 0 -170 690 0 690 0 2 -67
c1 -38 3 -84 4 -103 1 -19 2 -56 3 -82 l1 -48 163 -2 162 -3 3 -284 c1 -183
-1 -288 -8 -295 -6 -6 -10 -111 -10 -282 0 -171 -4 -275 -10 -279 -6 -4 -10
-54 -10 -118 0 -62 -4 -118 -8 -124 -6 -9 -55 -13 -167 -15 l-160 -3 -2 -120
c-4 -182 5 -169 -115 -161 -56 4 -106 10 -112 13 -10 7 -49 6 -381 -9 -214 -9
-220 -9 -236 11 -11 13 -19 17 -26 10 -7 -7 -56 -9 -127 -7 -66 2 -117 -1
-119 -6 -4 -14 -385 -19 -482 -7 -93 12 -223 16 -245 8 -8 -3 -110 -8 -226
-12 l-211 -6 -19 28 c-14 22 -19 54 -24 143 l-5 115 -165 3 -165 3 -12 26
c-10 20 -13 113 -13 354 0 208 -4 330 -10 334 -6 4 -10 132 -10 350 0 218 -4
346 -10 350 -6 4 -10 134 -10 356 0 302 -2 350 -15 355 -13 5 -15 41 -15 240
l0 234 183 2 182 3 3 157 3 158 492 2 c501 3 1775 0 1901 -5z"/>
<path d="M5072 2093 l-113 -4 3 -147 3 -147 165 0 165 0 5 130 c3 72 9 137 13
146 6 13 1 18 -24 23 -17 3 -48 5 -68 4 -20 -1 -87 -4 -149 -5z"/>
</g>
</svg>
